<?xml version="1.0" encoding="UTF-8" ?>
<!DOCTYPE svg PUBLIC "-//W3C//DTD SVG 1.1//EN" "http://www.w3.org/Graphics/SVG/1.1/DTD/svg11.dtd">
<svg width="225pt" height="225pt" viewBox="0 0 225 225" version="1.1" xmlns="http://www.w3.org/2000/svg">
    <g id="#ffffffff">
    </g>
    <g id="#000000ff">
        <path fill="#000000" opacity="1.00"
              d=" M 83.06 42.74 C 85.24 38.14 82.83 28.52 89.98 28.55 C 104.99 28.52 120.01 28.52 135.02 28.55 C 142.16 28.52 139.77 38.14 141.94 42.74 C 172.61 55.14 192.24 89.22 187.67 122.00 C 190.68 125.76 197.68 127.87 197.36 133.31 C 190.08 146.86 182.00 160.00 174.45 173.41 C 171.14 180.34 163.39 173.56 158.22 172.85 C 132.20 193.20 92.81 193.18 66.78 172.85 C 62.00 173.60 56.96 178.08 52.24 175.84 C 43.75 162.12 35.91 147.94 27.88 133.94 C 26.42 128.18 34.35 125.86 37.33 122.00 C 32.76 89.22 52.38 55.15 83.06 42.74 M 88.70 31.99 C 86.83 37.12 88.81 45.52 81.99 47.02 C 53.34 59.74 35.85 92.62 40.98 123.51 C 37.48 126.29 34.22 129.36 30.80 132.24 C 38.65 145.96 46.65 159.59 54.46 173.34 C 58.83 171.97 63.15 170.44 67.49 168.97 C 92.65 189.95 132.36 189.97 157.51 168.96 C 161.85 170.42 166.16 171.98 170.54 173.34 C 178.35 159.59 186.35 145.96 194.20 132.24 C 190.78 129.35 187.51 126.29 184.02 123.50 C 189.14 92.61 171.66 59.74 143.01 47.02 C 136.19 45.53 138.17 37.13 136.30 31.99 C 120.43 32.01 104.57 32.01 88.70 31.99 Z"/>
        <path fill="#000000" opacity="1.00"
              d=" M 92.77 35.82 C 105.92 35.81 119.08 35.81 132.23 35.82 C 133.08 39.99 133.88 44.17 134.67 48.35 C 164.27 58.14 184.36 90.09 179.75 121.04 C 177.38 127.40 185.56 129.63 188.79 133.73 C 182.21 145.16 175.60 156.57 169.02 168.00 C 165.04 166.55 161.03 165.17 157.02 163.80 C 132.51 185.64 92.51 185.65 68.01 163.81 C 63.99 165.18 59.97 166.54 55.98 168.00 C 49.40 156.57 42.79 145.16 36.21 133.74 C 39.44 129.64 47.62 127.39 45.25 121.03 C 40.64 90.08 60.73 58.15 90.33 48.35 C 91.12 44.17 91.92 39.99 92.77 35.82 M 109.44 57.21 C 109.45 59.75 109.45 62.29 109.47 64.83 C 91.61 65.72 75.00 77.74 68.33 94.29 C 63.05 106.84 63.71 121.57 69.64 133.78 C 67.47 135.03 65.30 136.28 63.13 137.53 C 64.16 139.27 65.19 141.00 66.20 142.75 C 68.36 141.48 70.51 140.21 72.65 138.92 C 83.87 156.17 106.70 164.51 126.35 158.23 C 136.96 155.12 146.14 147.99 152.35 138.91 C 154.50 140.20 156.65 141.48 158.81 142.75 C 159.82 140.99 160.85 139.23 161.87 137.48 C 159.70 136.25 157.53 135.01 155.36 133.77 C 161.18 121.79 161.93 107.39 156.95 95.00 C 150.47 78.09 133.65 65.72 115.53 64.83 C 115.54 62.29 115.55 59.75 115.56 57.21 C 113.52 57.21 111.48 57.21 109.44 57.21 Z"/>
        <path fill="#000000" opacity="1.00"
              d=" M 77.78 94.93 C 83.70 82.93 96.17 74.76 109.44 73.61 C 109.47 79.28 109.43 84.94 109.48 90.60 C 107.19 90.63 104.90 90.61 102.61 90.68 C 105.87 97.06 109.19 103.41 112.45 109.79 C 115.83 103.45 119.21 97.09 122.31 90.60 C 120.05 90.60 117.79 90.61 115.53 90.64 C 115.57 84.96 115.53 79.29 115.56 73.61 C 127.08 74.66 138.02 80.82 144.55 90.42 C 152.47 101.64 153.41 116.93 147.73 129.34 C 142.75 126.54 137.84 123.64 132.88 120.81 C 134.06 118.86 135.23 116.91 136.34 114.92 C 129.18 114.34 122.00 114.15 114.82 113.88 C 118.72 119.93 122.58 125.99 126.51 132.01 C 127.65 130.01 128.78 128.00 129.94 126.01 C 134.84 128.91 139.83 131.67 144.71 134.63 C 137.40 144.66 125.54 151.48 112.98 151.36 C 100.10 151.79 87.77 144.93 80.29 134.63 C 85.16 131.67 90.16 128.92 95.06 126.01 C 96.22 128.00 97.35 130.01 98.49 132.01 C 102.42 125.99 106.28 119.92 110.18 113.88 C 103.01 114.19 95.82 114.33 88.66 114.93 C 89.77 116.91 90.94 118.87 92.12 120.81 C 87.17 123.65 82.24 126.53 77.28 129.35 C 72.40 118.53 72.28 105.54 77.78 94.93 Z"/>
    </g>
</svg>
